<svg width="20" height="18" viewBox="0 0 20 18" fill="none" xmlns="http://www.w3.org/2000/svg">
<path d="M19 18H1C0.72 18 0.483333 17.9033 0.29 17.71C0.0966667 17.5167 0 17.28 0 17V9.48C0 9.18667 0.113333 8.94 0.34 8.74L4 5.54V1C4 0.720001 4.09667 0.483334 4.29 0.290001C4.48333 0.0966663 4.72 0 5 0H19C19.28 0 19.5167 0.0966663 19.71 0.290001C19.9033 0.483334 20 0.720001 20 1V17C20 17.28 19.9033 17.5167 19.71 17.71C19.5167 17.9033 19.28 18 19 18ZM7 16H10V9.94L6 6.46L2 9.94V16H5V12H7V16ZM12 16H18V2H6V4.12C6.25333 4.12 6.47333 4.20667 6.66 4.38L11.66 8.74C11.8867 8.94 12 9.18667 12 9.48V16ZM14 8H16V10H14V8ZM14 12H16V14H14V12ZM14 4H16V6H14V4ZM10 4H12V6H10V4Z" fill="#16A34A"/>
</svg>
