<svg width="18" height="22" viewBox="0 0 18 22" fill="none" xmlns="http://www.w3.org/2000/svg">
<path d="M9 0L17.22 1.82C17.4467 1.87333 17.6333 1.99333 17.78 2.18C17.9267 2.36667 18 2.57333 18 2.8V12.78C18 13.7933 17.7633 14.74 17.29 15.62C16.8167 16.5 16.16 17.22 15.32 17.78L9 22L2.68 17.78C1.84 17.22 1.18333 16.5 0.71 15.62C0.236667 14.74 0 13.7933 0 12.78V2.8C0 2.57333 0.0733333 2.36667 0.22 2.18C0.366667 1.99333 0.553333 1.87333 0.78 1.82L9 0ZM9 2.04L2 3.6V12.78C2 13.46 2.15667 14.0933 2.47 14.68C2.78333 15.2667 3.22 15.7467 3.78 16.12L9 19.6L14.22 16.12C14.78 15.7467 15.2167 15.2667 15.53 14.68C15.8433 14.0933 16 13.46 16 12.78V3.6L9 2.04ZM13.46 7.22L14.86 8.64L8.5 15L4.26 10.76L5.68 9.34L8.5 12.18L13.46 7.22Z" fill="#16A34A"/>
</svg>
