<svg width="23" height="20" viewBox="0 0 23 20" fill="none" xmlns="http://www.w3.org/2000/svg">
<path d="M11.32 16.8003C12.0267 16.8003 12.6533 17.0203 13.2 17.4603L11.32 19.8003L9.44 17.4603C9.98667 17.0203 10.6133 16.8003 11.32 16.8003ZM2.12 0.200293L19.8 17.8803L18.4 19.2803L13.22 14.1003C12.6067 13.9003 11.9733 13.8003 11.32 13.8003C10.6133 13.8003 9.94 13.917 9.3 14.1503C8.66 14.3836 8.07333 14.7136 7.54 15.1403L6.3 13.5803C6.94 13.0603 7.65333 12.647 8.44 12.3403C9.22667 12.0336 10.0533 11.8603 10.92 11.8203L8.32 9.22029C6.88 9.62029 5.57333 10.2936 4.4 11.2403L3.16 9.70029C4.24 8.82029 5.43333 8.13363 6.74 7.64029L4.46 5.34029C3.31333 5.88696 2.24667 6.56029 1.26 7.36029L0 5.80029C0.933333 5.05363 1.92 4.40696 2.96 3.86029L0.72 1.62029L2.12 0.200293ZM13.82 9.08029L11.54 6.80029H11.32C12.84 6.80029 14.3067 7.05363 15.72 7.56029C17.0933 8.06696 18.3467 8.78029 19.48 9.70029L18.24 11.2403C16.92 10.187 15.4467 9.46696 13.82 9.08029ZM11.32 1.80029C13.4267 1.80029 15.46 2.15363 17.42 2.86029C19.3133 3.54029 21.0533 4.52029 22.64 5.80029L21.38 7.36029C19.98 6.22696 18.4333 5.35363 16.74 4.74029C14.9933 4.11363 13.1867 3.80029 11.32 3.80029C10.4533 3.80029 9.59333 3.87363 8.74 4.02029L7.04 2.32029C8.44 1.97363 9.86667 1.80029 11.32 1.80029Z" fill="#16A34A"/>
</svg>
