<svg width="14" height="20" viewBox="0 0 14 20" fill="none" xmlns="http://www.w3.org/2000/svg">
<path d="M2 2V18H12V2H2ZM1 0H13C13.28 0 13.5167 0.0966663 13.71 0.290001C13.9033 0.483334 14 0.720001 14 1V19C14 19.28 13.9033 19.5167 13.71 19.71C13.5167 19.9033 13.28 20 13 20H1C0.72 20 0.483333 19.9033 0.29 19.71C0.0966667 19.5167 0 19.28 0 19V1C0 0.720001 0.0966667 0.483334 0.29 0.290001C0.483333 0.0966663 0.72 0 1 0ZM7 15C7.28 15 7.51667 15.0967 7.71 15.29C7.90333 15.4833 8 15.72 8 16C8 16.28 7.90333 16.5167 7.71 16.71C7.51667 16.9033 7.28 17 7 17C6.72 17 6.48333 16.9033 6.29 16.71C6.09667 16.5167 6 16.28 6 16C6 15.72 6.09667 15.4833 6.29 15.29C6.48333 15.0967 6.72 15 7 15Z" fill="#16A34A"/>
</svg>
